<svg width="600" height="260" viewBox="0 0 600 260" xmlns="http://www.w3.org/2000/svg">
  <defs>
    <linearGradient id="bg10" x1="0%" y1="0%" x2="100%" y2="0%">
      <stop offset="0%" style="stop-color:#991b1b;stop-opacity:1" />
      <stop offset="50%" style="stop-color:#ef4444;stop-opacity:1" />
      <stop offset="100%" style="stop-color:#991b1b;stop-opacity:1" />
    </linearGradient>
    <pattern id="geometric" x="0" y="0" width="40" height="40" patternUnits="userSpaceOnUse">
      <rect x="0" y="0" width="20" height="20" fill="none" stroke="rgba(255,255,255,0.1)" stroke-width="1"/>
      <rect x="20" y="20" width="20" height="20" fill="none" stroke="rgba(255,255,255,0.1)" stroke-width="1"/>
    </pattern>
  </defs>
  <rect width="600" height="260" rx="10" ry="10" fill="url(#bg10)" stroke="#7f1d1d" stroke-width="2"/>
  <rect width="600" height="260" fill="url(#geometric)"/>
  <text x="300" y="40" font-family="Arial, sans-serif" font-size="24" font-weight="bold" fill="white" text-anchor="middle" letter-spacing="2">REPÚBLICA FEDERATIVA DO BRASIL</text>
  <text x="300" y="240" font-family="Arial, sans-serif" font-size="16" font-weight="bold" fill="white" text-anchor="middle" letter-spacing="1">BANCO CENTRAL DO BRASIL</text>
  <text x="40" y="160" font-family="Times New Roman, serif" font-size="140" font-weight="bold" fill="white" filter="drop-shadow(4px 4px 0px rgba(0,0,0,0.3))">10</text>
  <text x="40" y="200" font-family="Arial, sans-serif" font-size="30" font-weight="bold" fill="#fecaca" letter-spacing="2">REAIS</text>
  <text x="520" y="60" font-family="Arial, sans-serif" font-size="50" font-weight="bold" fill="white" text-anchor="end">10</text>
  <g transform="translate(260, 50) scale(1.2)">
    <path d="M40 20 Q80 20 90 50 Q100 90 70 120 L50 100 Z" fill="#dc2626" stroke="#7f1d1d" stroke-width="1"/>
    <path d="M70 50 Q100 70 80 100" fill="#16a34a" stroke="#14532d" stroke-width="1"/>
    <path d="M80 60 Q100 80 90 90" fill="#2563eb" stroke="#1e3a8a" stroke-width="1"/>
    <path d="M50 100 L40 140 L60 140 L70 120" fill="#dc2626" stroke="#7f1d1d" stroke-width="1"/>
    <circle cx="45" cy="30" r="18" fill="#dc2626"/>
    <path d="M30 30 Q20 45 40 45" fill="black"/>
    <path d="M30 30 Q20 15 45 20" fill="white"/>
    <circle cx="40" cy="25" r="2" fill="black"/>
  </g>
  <path d="M450 50 L450 210" stroke="rgba(255,255,255,0.3)" stroke-width="2"/>
  <circle cx="500" cy="150" r="40" fill="rgba(255,255,255,0.1)"/>
</svg>
