<svg width="600" height="260" viewBox="0 0 600 260" xmlns="http://www.w3.org/2000/svg">
  <defs>
    <linearGradient id="bg2" x1="0%" y1="0%" x2="100%" y2="0%">
      <stop offset="0%" style="stop-color:#1e4d7b;stop-opacity:1" />
      <stop offset="50%" style="stop-color:#3b82f6;stop-opacity:1" />
      <stop offset="100%" style="stop-color:#1e4d7b;stop-opacity:1" />
    </linearGradient>
    <pattern id="waves" x="0" y="0" width="20" height="20" patternUnits="userSpaceOnUse">
      <path d="M0 10 Q10 0 20 10" fill="none" stroke="rgba(255,255,255,0.1)" stroke-width="1"/>
    </pattern>
  </defs>
  <rect width="600" height="260" rx="10" ry="10" fill="url(#bg2)" stroke="#102a43" stroke-width="2"/>
  <rect width="600" height="260" fill="url(#waves)"/>
  <text x="300" y="40" font-family="Arial, sans-serif" font-size="24" font-weight="bold" fill="white" text-anchor="middle" letter-spacing="2">REPÚBLICA FEDERATIVA DO BRASIL</text>
  <text x="300" y="240" font-family="Arial, sans-serif" font-size="16" font-weight="bold" fill="white" text-anchor="middle" letter-spacing="1">BANCO CENTRAL DO BRASIL</text>
  <text x="40" y="160" font-family="Times New Roman, serif" font-size="140" font-weight="bold" fill="white" filter="drop-shadow(4px 4px 0px rgba(0,0,0,0.3))">2</text>
  <text x="40" y="200" font-family="Arial, sans-serif" font-size="30" font-weight="bold" fill="#bfdbfe" letter-spacing="2">REAIS</text>
  <text x="520" y="60" font-family="Arial, sans-serif" font-size="50" font-weight="bold" fill="white" text-anchor="end">2</text>
  <g transform="translate(250, 60) scale(1.2)">
    <path d="M40 30 Q10 50 40 70 Q70 90 100 70 Q130 50 100 30 Q70 10 40 30" fill="#60a5fa" stroke="#1e3a8a" stroke-width="2"/>
    <path d="M50 40 L70 35 L90 40 L90 60 L70 65 L50 60 Z" fill="#2563eb" stroke="#1e3a8a" stroke-width="1"/>
    <path d="M70 35 L90 40 M90 60 L70 65 M50 60 L50 40" stroke="#1e3a8a" stroke-width="1" fill="none"/>
    <ellipse cx="25" cy="50" rx="15" ry="12" fill="#93c5fd" stroke="#1e3a8a" stroke-width="2"/>
    <path d="M40 70 Q20 100 50 90" fill="#93c5fd" stroke="#1e3a8a" stroke-width="2"/>
    <path d="M100 70 Q120 100 90 90" fill="#93c5fd" stroke="#1e3a8a" stroke-width="2"/>
    <path d="M40 30 Q10 10 30 20" fill="#93c5fd" stroke="#1e3a8a" stroke-width="2"/>
    <path d="M100 30 Q130 10 110 20" fill="#93c5fd" stroke="#1e3a8a" stroke-width="2"/>
  </g>
  <path d="M450 50 L450 210" stroke="rgba(255,255,255,0.3)" stroke-width="2"/>
  <circle cx="500" cy="150" r="40" fill="rgba(255,255,255,0.1)"/>
</svg>
