<svg width="600" height="260" viewBox="0 0 600 260" xmlns="http://www.w3.org/2000/svg">
  <defs>
    <linearGradient id="bg5" x1="0%" y1="0%" x2="100%" y2="0%">
      <stop offset="0%" style="stop-color:#4c1d95;stop-opacity:1" />
      <stop offset="50%" style="stop-color:#8b5cf6;stop-opacity:1" />
      <stop offset="100%" style="stop-color:#4c1d95;stop-opacity:1" />
    </linearGradient>
    <pattern id="leaves" x="0" y="0" width="30" height="30" patternUnits="userSpaceOnUse">
      <path d="M15 0 Q30 15 15 30 Q0 15 15 0" fill="none" stroke="rgba(255,255,255,0.1)" stroke-width="1"/>
    </pattern>
  </defs>
  <rect width="600" height="260" rx="10" ry="10" fill="url(#bg5)" stroke="#2e1065" stroke-width="2"/>
  <rect width="600" height="260" fill="url(#leaves)"/>
  <text x="300" y="40" font-family="Arial, sans-serif" font-size="24" font-weight="bold" fill="white" text-anchor="middle" letter-spacing="2">REPÚBLICA FEDERATIVA DO BRASIL</text>
  <text x="300" y="240" font-family="Arial, sans-serif" font-size="16" font-weight="bold" fill="white" text-anchor="middle" letter-spacing="1">BANCO CENTRAL DO BRASIL</text>
  <text x="40" y="160" font-family="Times New Roman, serif" font-size="140" font-weight="bold" fill="white" filter="drop-shadow(4px 4px 0px rgba(0,0,0,0.3))">5</text>
  <text x="40" y="200" font-family="Arial, sans-serif" font-size="30" font-weight="bold" fill="#ddd6fe" letter-spacing="2">REAIS</text>
  <text x="520" y="60" font-family="Arial, sans-serif" font-size="50" font-weight="bold" fill="white" text-anchor="end">5</text>
  <g transform="translate(250, 60) scale(1.3)">
    <path d="M60 100 Q40 100 30 80 Q20 50 40 40 Q60 30 50 10" fill="none" stroke="white" stroke-width="8" stroke-linecap="round"/>
    <path d="M60 100 Q80 110 100 100 Q120 90 100 70 Q80 60 60 100" fill="white" stroke="#ddd6fe" stroke-width="1"/>
    <path d="M70 90 Q100 70 110 100" fill="#f3e8ff" stroke="#ddd6fe" stroke-width="1"/>
    <path d="M50 10 L80 15 L50 20 Z" fill="#facc15" stroke="#eab308" stroke-width="1"/>
    <circle cx="50" cy="15" r="10" fill="white"/>
    <circle cx="52" cy="13" r="1" fill="black"/>
    <line x1="80" y1="100" x2="80" y2="140" stroke="#facc15" stroke-width="3"/>
    <line x1="90" y1="100" x2="90" y2="130" stroke="#facc15" stroke-width="3"/>
  </g>
  <path d="M450 50 L450 210" stroke="rgba(255,255,255,0.3)" stroke-width="2"/>
  <circle cx="500" cy="150" r="40" fill="rgba(255,255,255,0.1)"/>
</svg>
